
      <svg data-logo="logo" xmlns="http://www.w3.org/2000/svg" viewBox="0 0 260 43">
        <g id="logogram" transform="translate(0, 1) rotate(0) "><path d="M65.2314 9.32458C62.3969 6.45393 59.0318 4.17673 55.3285 2.62316C51.625 1.06959 47.6558 0.269989 43.6472 0.269989C39.6386 0.269989 35.6694 1.06959 31.966 2.62316C28.2626 4.17673 24.8976 6.45393 22.0631 9.32458L43.6472 31.1841L65.2314 9.32458Z" fill="#FFD200"/><path d="M43.6743 31.2155C46.5088 34.0862 49.8737 36.3632 53.5772 37.9168C57.2805 39.4704 61.2499 40.27 65.2584 40.27C69.2668 40.27 73.2366 39.4704 76.9399 37.9168C80.6431 36.3632 84.0085 34.0862 86.8428 31.2155L65.2584 9.35593L43.6743 31.2155Z" fill="#06E07F"/><path d="M43.6209 31.2107C40.7864 34.0814 37.4214 36.3585 33.718 37.912C30.0146 39.4656 26.0454 40.2652 22.0368 40.2652C18.0282 40.2652 14.059 39.4656 10.3555 37.912C6.65217 36.3585 3.28711 34.0814 0.452637 31.2107L22.0368 9.35114L43.6209 31.2107Z" fill="#E3073C"/><path d="M65.2847 9.3293C68.1188 6.45865 71.4842 4.18156 75.1875 2.62798C78.8907 1.07441 82.8605 0.274811 86.8686 0.274811C90.8777 0.274811 94.8465 1.07441 98.5498 2.62798C102.253 4.18156 105.618 6.45865 108.453 9.3293L86.8686 31.1889L65.2847 9.3293Z" fill="#1F84EF"/></g>
        <g id="logotype" transform="translate(115, 1.5)"><path fill="#111111" d="M13.52 33L8.31 33L8.31 7.54L18.24 7.54Q21.14 7.54 23.18 8.64Q25.21 9.74 26.28 11.68Q27.35 13.62 27.35 16.13L27.35 16.13Q27.35 18.66 26.26 20.58Q25.17 22.51 23.12 23.59Q21.06 24.68 18.12 24.68L18.12 24.68L11.73 24.68L11.73 20.47L17.28 20.47Q18.89 20.47 19.92 19.92Q20.95 19.36 21.46 18.39Q21.96 17.41 21.96 16.13L21.96 16.13Q21.96 14.85 21.46 13.88Q20.95 12.90 19.91 12.37Q18.87 11.84 17.26 11.84L17.26 11.84L13.52 11.84L13.52 33ZM37.14 33.38L37.14 33.38Q34.26 33.38 32.16 32.14Q30.06 30.90 28.92 28.68Q27.79 26.47 27.79 23.53L27.79 23.53Q27.79 20.56 28.92 18.35Q30.06 16.13 32.16 14.89Q34.26 13.65 37.14 13.65L37.14 13.65Q40.02 13.65 42.12 14.89Q44.21 16.13 45.35 18.35Q46.48 20.56 46.48 23.53L46.48 23.53Q46.48 26.47 45.35 28.68Q44.21 30.90 42.12 32.14Q40.02 33.38 37.14 33.38ZM37.14 29.34L37.14 29.34Q38.50 29.34 39.43 28.58Q40.35 27.82 40.81 26.50Q41.27 25.17 41.27 23.52L41.27 23.52Q41.27 21.82 40.81 20.51Q40.35 19.19 39.43 18.44Q38.50 17.69 37.14 17.69L37.14 17.69Q35.77 17.69 34.85 18.44Q33.94 19.19 33.48 20.51Q33.02 21.82 33.02 23.52L33.02 23.52Q33.02 25.17 33.48 26.50Q33.94 27.82 34.85 28.58Q35.77 29.34 37.14 29.34ZM52.91 40.14L47.78 40.14L47.78 13.89L52.82 13.89L52.82 17.11L53.06 17.11Q53.42 16.35 54.08 15.55Q54.74 14.75 55.81 14.20Q56.89 13.65 58.51 13.65L58.51 13.65Q60.63 13.65 62.39 14.75Q64.15 15.84 65.20 18.03Q66.25 20.22 66.25 23.48L66.25 23.48Q66.25 26.66 65.23 28.86Q64.20 31.05 62.44 32.19Q60.68 33.32 58.48 33.32L58.48 33.32Q56.92 33.32 55.85 32.79Q54.77 32.27 54.10 31.49Q53.42 30.71 53.06 29.94L53.06 29.94L52.91 29.94L52.91 40.14ZM56.91 29.21L56.91 29.21Q58.24 29.21 59.15 28.47Q60.07 27.74 60.54 26.44Q61.01 25.14 61.01 23.46L61.01 23.46Q61.01 21.79 60.54 20.51Q60.07 19.23 59.16 18.49Q58.26 17.76 56.91 17.76L56.91 17.76Q55.59 17.76 54.67 18.47Q53.74 19.17 53.27 20.45Q52.79 21.72 52.79 23.46L52.79 23.46Q52.79 25.19 53.27 26.48Q53.76 27.77 54.68 28.49Q55.61 29.21 56.91 29.21ZM76.76 33L71.55 33L65.91 13.89L71.29 13.89L72.95 20.95Q73.38 22.85 73.87 25.08Q74.37 27.31 74.78 30.01L74.78 30.01L74.20 30.01Q74.64 27.38 75.17 25.14Q75.70 22.90 76.16 20.95L76.16 20.95L77.91 13.89L82.62 13.89L84.32 20.95Q84.76 22.88 85.29 25.11Q85.82 27.34 86.28 30.01L86.28 30.01L85.70 30.01Q86.11 27.36 86.58 25.13Q87.05 22.90 87.50 20.95L87.50 20.95L89.15 13.89L94.60 13.89L88.93 33L83.72 33L81.60 25.63Q81.29 24.52 80.98 23.18Q80.68 21.84 80.39 20.45Q80.10 19.05 79.79 17.84L79.79 17.84L80.69 17.84Q80.40 19.05 80.10 20.45Q79.80 21.84 79.50 23.19Q79.19 24.54 78.88 25.63L78.88 25.63L76.76 33ZM103.59 33.38L103.59 33.38Q100.72 33.38 98.62 32.14Q96.52 30.90 95.38 28.68Q94.24 26.47 94.24 23.53L94.24 23.53Q94.24 20.56 95.38 18.35Q96.52 16.13 98.62 14.89Q100.72 13.65 103.59 13.65L103.59 13.65Q106.48 13.65 108.57 14.89Q110.67 16.13 111.80 18.35Q112.94 20.56 112.94 23.53L112.94 23.53Q112.94 26.47 111.80 28.68Q110.67 30.90 108.57 32.14Q106.48 33.38 103.59 33.38ZM103.59 29.34L103.59 29.34Q104.96 29.34 105.88 28.58Q106.80 27.82 107.27 26.50Q107.73 25.17 107.73 23.52L107.73 23.52Q107.73 21.82 107.27 20.51Q106.80 19.19 105.88 18.44Q104.96 17.69 103.59 17.69L103.59 17.69Q102.22 17.69 101.31 18.44Q100.40 19.19 99.93 20.51Q99.47 21.82 99.47 23.52L99.47 23.52Q99.47 25.17 99.93 26.50Q100.40 27.82 101.31 28.58Q102.22 29.34 103.59 29.34ZM119.36 33L114.24 33L114.24 13.89L119.19 13.89L119.19 17.23L119.40 17.23Q119.93 15.45 121.17 14.54Q122.41 13.64 124.01 13.64L124.01 13.64Q124.41 13.64 124.86 13.68Q125.31 13.72 125.67 13.81L125.67 13.81L125.67 18.39Q125.33 18.27 124.68 18.20Q124.03 18.13 123.45 18.13L123.45 18.13Q122.29 18.13 121.35 18.64Q120.41 19.14 119.89 20.04Q119.36 20.93 119.36 22.13L119.36 22.13L119.36 33ZM134.35 23.48L130.86 27.41L130.86 21.24L131.63 21.24L137.89 13.89L143.82 13.89L135.56 23.48L134.35 23.48ZM131.34 33L126.21 33L126.21 7.54L131.34 7.54L131.34 33ZM144.18 33L138.14 33L132.40 24.63L135.84 20.99L144.18 33Z"/></g>
        
      </svg>
    